<svg width="146" height="146" viewBox="0 0 146 146" fill="none" xmlns="http://www.w3.org/2000/svg">
<circle cx="73" cy="73" r="73" fill="#DAF5FF"/>
<mask id="mask0" mask-type="alpha" maskUnits="userSpaceOnUse" x="0" y="0" width="146" height="146">
<circle cx="73" cy="73" r="73" fill="#DAF5FF"/>
</mask>
<g mask="url(#mask0)">
<rect x="-22" y="100" width="207" height="82" fill="#B1EAFF"/>
<circle cx="73" cy="47" r="24" fill="#B1EAFF"/>
<path fill-rule="evenodd" clip-rule="evenodd" d="M75 29C75 30.1046 74.1046 31 73 31C71.8954 31 71 30.1046 71 29C71 27.8954 71.8954 27 73 27C74.1046 27 75 27.8954 75 29ZM93 47C93 48.1046 92.1046 49 91 49C89.8954 49 89 48.1046 89 47C89 45.8954 89.8954 45 91 45C92.1046 45 93 45.8954 93 47ZM73 67C74.1046 67 75 66.1046 75 65C75 63.8954 74.1046 63 73 63C71.8954 63 71 63.8954 71 65C71 66.1046 71.8954 67 73 67ZM57 47C57 48.1046 56.1046 49 55 49C53.8954 49 53 48.1046 53 47C53 45.8954 53.8954 45 55 45C56.1046 45 57 45.8954 57 47Z" fill="#3048E9"/>
<path fill-rule="evenodd" clip-rule="evenodd" d="M81.414 41.414L77.6555 45.1725C77.1481 43.881 76.1189 42.8518 74.8275 42.3445L78.586 38.586C79.367 37.805 80.633 37.805 81.414 38.586C82.195 39.367 82.195 40.633 81.414 41.414ZM75.7575 51.1715C76.3184 50.8 76.8 50.3184 77.1715 49.7575L85.7069 58.2929L84.2929 59.7069L75.7575 51.1715ZM71.1725 42.3445C69.8811 42.8519 68.8519 43.8811 68.3445 45.1725L60.586 37.414C59.805 36.633 59.805 35.367 60.586 34.586C61.367 33.805 62.633 33.805 63.414 34.586L71.1725 42.3445ZM76 47C76 48.6569 74.6569 50 73 50C71.3431 50 70 48.6569 70 47C70 45.3431 71.3431 44 73 44C74.6569 44 76 45.3431 76 47ZM74 47C74 47.5523 73.5523 48 73 48C72.4477 48 72 47.5523 72 47C72 46.4477 72.4477 46 73 46C73.5523 46 74 46.4477 74 47Z" fill="#3048E9"/>
<path fill-rule="evenodd" clip-rule="evenodd" d="M36 113C36 112.448 36.4477 112 37 112H208.814C209.367 112 209.814 112.448 209.814 113V120.623C209.814 121.176 209.367 121.623 208.814 121.623H37C36.4477 121.623 36 121.176 36 120.623V113Z" fill="#071471"/>
<path fill-rule="evenodd" clip-rule="evenodd" d="M48.8751 120.02H52.0939V250.739H48.8751V120.02Z" fill="#071471"/>
<path d="M118.735 89.2294C121.056 88.6981 123.267 88.4478 124.454 88.9716C127.531 90.3302 118.467 95 112.312 95C110.68 95 109.659 94.7274 109.115 94.3409C102.584 94.877 93.9555 90.8812 94.4303 88.8298C94.7917 87.2685 98.4784 88.3265 101.717 89.0989C101.675 89.0567 101.633 89.0143 101.592 88.9716C100.273 87.6131 91.4501 77.7234 93.2382 75.8723C94.1061 74.9739 97.2384 77.2865 100.233 79.9565C98.1163 76.8752 96.6801 73.9278 97.817 73.2614C98.5325 72.842 99.4542 72.2524 99.3119 71.4353C99.0309 69.8207 98.9702 67.7242 100.391 67.234C101.824 66.7394 104.385 72.5336 106.428 77.3902C106.428 77.3674 106.428 77.3445 106.428 77.3217C106.428 73.2459 108.736 74.0213 108.736 72.1702C108.736 70.2178 110.228 66 112.312 66C113.476 66 113.431 71.0887 112.806 76.2119C113.022 75.8323 113.254 75.5055 113.504 75.2553C114.069 74.6902 116.484 69.7021 118.272 70.9362C119.192 71.5707 118.32 74.2059 116.798 77.0269C120.08 74.1774 123.021 71.8516 123.637 72.1702C124.788 72.7659 122.827 78.8259 120.254 83.029C123.116 80.5286 127.614 77.013 128.85 77.65C129.98 78.2317 124.528 84.5462 118.735 89.2294Z" fill="#071471"/>
<path d="M104.857 112L98 93H122L116.198 112H104.857Z" fill="#3048E9"/>
</g>
</svg>
